<mxfile host="app.diagrams.net" modified="2024-06-26T13:46:10.877Z" agent="Mozilla/5.0 (Windows NT 10.0; Win64; x64) AppleWebKit/537.36 (KHTML, like Gecko) Chrome/126.0.0.0 Safari/537.36" version="24.5.3" etag="OjRSAP1s55rhCjaFkHsi" type="github">
  <diagram name="PÃ¡gina-1" id="tFGQ0aHQqsHwCIdxl7LE">
    <mxGraphModel>
      <root>
        <mxCell id="0" />
        <mxCell id="1" parent="0" />
        <mxCell id="2" value="front-alta-siniestro" style="whiteSpace=wrap;strokeWidth=2;" vertex="1" parent="1">
          <mxGeometry x="381" width="152" height="34" as="geometry" />
        </mxCell>
        <mxCell id="3" value="front-recomendador-siniestro-lado1" style="ellipse;aspect=fixed;strokeWidth=2;whiteSpace=wrap;" vertex="1" parent="1">
          <mxGeometry y="102" width="271" height="271" as="geometry" />
        </mxCell>
        <mxCell id="4" value="front-recomendador-siniestro-lado2" style="ellipse;aspect=fixed;strokeWidth=2;whiteSpace=wrap;" vertex="1" parent="1">
          <mxGeometry x="321" y="102" width="271" height="271" as="geometry" />
        </mxCell>
        <mxCell id="5" value="front-recomendador-siniestro-lado3" style="ellipse;aspect=fixed;strokeWidth=2;whiteSpace=wrap;" vertex="1" parent="1">
          <mxGeometry x="643" y="102" width="271" height="271" as="geometry" />
        </mxCell>
        <mxCell id="6" value="x" style="curved=1;startArrow=none;endArrow=none;exitX=0;exitY=0.85;entryX=0.5;entryY=0;" edge="1" parent="1" source="2" target="3">
          <mxGeometry relative="1" as="geometry">
            <Array as="points">
              <mxPoint x="136" y="68" />
            </Array>
          </mxGeometry>
        </mxCell>
        <mxCell id="7" value="y" style="curved=1;startArrow=none;endArrow=none;exitX=0.5;exitY=0.99;entryX=0.5;entryY=0;" edge="1" parent="1" source="2" target="4">
          <mxGeometry relative="1" as="geometry">
            <Array as="points" />
          </mxGeometry>
        </mxCell>
        <mxCell id="8" value="z" style="curved=1;startArrow=none;endArrow=none;exitX=1;exitY=0.85;entryX=0.5;entryY=0;" edge="1" parent="1" source="2" target="5">
          <mxGeometry relative="1" as="geometry">
            <Array as="points">
              <mxPoint x="778" y="68" />
            </Array>
          </mxGeometry>
        </mxCell>
      </root>
    </mxGraphModel>
  </diagram>
</mxfile>
